<svg id="visual" viewBox="0 0 1920 1080" width="1920" height="1080" xmlns="http://www.w3.org/2000/svg" xmlns:xlink="http://www.w3.org/1999/xlink" version="1.1"><rect x="0" y="0" width="1920" height="1080" fill="#1C2022"></rect><g fill="none" stroke="#fff" stroke-width="2"><circle r="77" cx="775" cy="651"></circle><circle r="18" cx="1081" cy="325"></circle><circle r="56" cx="1782" cy="133"></circle><circle r="64" cx="156" cy="770"></circle><circle r="49" cx="1858" cy="768"></circle><circle r="60" cx="973" cy="10"></circle><circle r="32" cx="803" cy="40"></circle><circle r="74" cx="493" cy="251"></circle><circle r="22" cx="1903" cy="557"></circle><circle r="72" cx="149" cy="1032"></circle><circle r="33" cx="1529" cy="428"></circle><circle r="70" cx="1530" cy="1041"></circle><circle r="50" cx="613" cy="805"></circle><circle r="49" cx="1824" cy="992"></circle><circle r="71" cx="1386" cy="25"></circle><circle r="57" cx="1859" cy="377"></circle><circle r="27" cx="1653" cy="919"></circle><circle r="62" cx="836" cy="892"></circle><circle r="74" cx="807" cy="262"></circle><circle r="31" cx="1627" cy="730"></circle><circle r="33" cx="167" cy="37"></circle><circle r="31" cx="1067" cy="827"></circle><circle r="56" cx="1379" cy="681"></circle><circle r="30" cx="1634" cy="302"></circle><circle r="56" cx="1109" cy="1058"></circle><circle r="46" cx="484" cy="964"></circle><circle r="57" cx="642" cy="418"></circle><circle r="73" cx="1223" cy="126"></circle><circle r="45" cx="476" cy="712"></circle><circle r="46" cx="160" cy="554"></circle><circle r="47" cx="1019" cy="495"></circle><circle r="30" cx="1267" cy="482"></circle><circle r="25" cx="286" cy="936"></circle><circle r="31" cx="1186" cy="689"></circle><circle r="28" cx="232" cy="193"></circle><circle r="55" cx="656" cy="1047"></circle><circle r="71" cx="104" cy="398"></circle><circle r="55" cx="435" cy="447"></circle></g></svg>