<svg id="visual" viewBox="0 0 900 200" width="900" height="200" xmlns="http://www.w3.org/2000/svg" xmlns:xlink="http://www.w3.org/1999/xlink" version="1.1"><path d="M0 9L6.5 8.7C13 8.3 26 7.7 39 7.3C52 7 65 7 78 7.3C91 7.7 104 8.3 117.2 8.3C130.3 8.3 143.7 7.7 156.8 7.7C170 7.7 183 8.3 196 8.7C209 9 222 9 235 9C248 9 261 9 274 8.7C287 8.3 300 7.7 313 7.7C326 7.7 339 8.3 352 8.7C365 9 378 9 391 9C404 9 417 9 430.2 8.7C443.3 8.3 456.7 7.7 469.8 7.3C483 7 496 7 509 7.3C522 7.7 535 8.3 548 8.7C561 9 574 9 587 8.7C600 8.3 613 7.7 626 7.7C639 7.7 652 8.3 665 8.3C678 8.3 691 7.7 704 7.3C717 7 730 7 743.2 7C756.3 7 769.7 7 782.8 7C796 7 809 7 822 7C835 7 848 7 861 7.3C874 7.7 887 8.3 893.5 8.7L900 9L900 0L893.5 0C887 0 874 0 861 0C848 0 835 0 822 0C809 0 796 0 782.8 0C769.7 0 756.3 0 743.2 0C730 0 717 0 704 0C691 0 678 0 665 0C652 0 639 0 626 0C613 0 600 0 587 0C574 0 561 0 548 0C535 0 522 0 509 0C496 0 483 0 469.8 0C456.7 0 443.3 0 430.2 0C417 0 404 0 391 0C378 0 365 0 352 0C339 0 326 0 313 0C300 0 287 0 274 0C261 0 248 0 235 0C222 0 209 0 196 0C183 0 170 0 156.8 0C143.7 0 130.3 0 117.2 0C104 0 91 0 78 0C65 0 52 0 39 0C26 0 13 0 6.5 0L0 0Z" fill="#2551b6"></path><path d="M0 21L6.5 21.7C13 22.3 26 23.7 39 24.3C52 25 65 25 78 24.7C91 24.3 104 23.7 117.2 22.7C130.3 21.7 143.7 20.3 156.8 20.3C170 20.3 183 21.7 196 23C209 24.3 222 25.7 235 26.3C248 27 261 27 274 26C287 25 300 23 313 22.7C326 22.3 339 23.7 352 24.7C365 25.7 378 26.3 391 26C404 25.7 417 24.3 430.2 23C443.3 21.7 456.7 20.3 469.8 20.3C483 20.3 496 21.7 509 22C522 22.3 535 21.7 548 22C561 22.3 574 23.7 587 24.3C600 25 613 25 626 24.7C639 24.3 652 23.7 665 23C678 22.3 691 21.7 704 21.3C717 21 730 21 743.2 21.3C756.3 21.7 769.7 22.3 782.8 22.3C796 22.3 809 21.7 822 21.7C835 21.7 848 22.3 861 22.3C874 22.3 887 21.7 893.5 21.3L900 21L900 7L893.5 6.7C887 6.3 874 5.7 861 5.3C848 5 835 5 822 5C809 5 796 5 782.8 5C769.7 5 756.3 5 743.2 5C730 5 717 5 704 5.3C691 5.7 678 6.3 665 6.3C652 6.3 639 5.7 626 5.7C613 5.7 600 6.3 587 6.7C574 7 561 7 548 6.7C535 6.3 522 5.7 509 5.3C496 5 483 5 469.8 5.3C456.7 5.7 443.3 6.3 430.2 6.7C417 7 404 7 391 7C378 7 365 7 352 6.7C339 6.3 326 5.7 313 5.7C300 5.7 287 6.3 274 6.7C261 7 248 7 235 7C222 7 209 7 196 6.7C183 6.3 170 5.7 156.8 5.7C143.7 5.7 130.3 6.3 117.2 6.3C104 6.3 91 5.7 78 5.3C65 5 52 5 39 5.3C26 5.7 13 6.3 6.5 6.7L0 7Z" fill="#0065c2"></path><path d="M0 31L6.5 31.3C13 31.7 26 32.3 39 33C52 33.7 65 34.3 78 34.3C91 34.3 104 33.7 117.2 32.7C130.3 31.7 143.7 30.3 156.8 30C170 29.7 183 30.3 196 31.7C209 33 222 35 235 35.7C248 36.3 261 35.7 274 34.7C287 33.7 300 32.3 313 32.3C326 32.3 339 33.7 352 34.3C365 35 378 35 391 34.3C404 33.7 417 32.3 430.2 31C443.3 29.7 456.7 28.3 469.8 28.7C483 29 496 31 509 31.7C522 32.3 535 31.7 548 32C561 32.3 574 33.7 587 34.3C600 35 613 35 626 34.7C639 34.3 652 33.7 665 32.7C678 31.7 691 30.3 704 30C717 29.7 730 30.3 743.2 30.7C756.3 31 769.7 31 782.8 31C796 31 809 31 822 31C835 31 848 31 861 31C874 31 887 31 893.5 31L900 31L900 19L893.5 19.3C887 19.7 874 20.3 861 20.3C848 20.3 835 19.7 822 19.7C809 19.7 796 20.3 782.8 20.3C769.7 20.3 756.3 19.7 743.2 19.3C730 19 717 19 704 19.3C691 19.7 678 20.3 665 21C652 21.7 639 22.3 626 22.7C613 23 600 23 587 22.3C574 21.7 561 20.3 548 20C535 19.7 522 20.3 509 20C496 19.7 483 18.3 469.8 18.3C456.7 18.3 443.3 19.7 430.2 21C417 22.3 404 23.7 391 24C378 24.3 365 23.7 352 22.7C339 21.7 326 20.3 313 20.7C300 21 287 23 274 24C261 25 248 25 235 24.3C222 23.7 209 22.3 196 21C183 19.7 170 18.3 156.8 18.3C143.7 18.3 130.3 19.7 117.2 20.7C104 21.7 91 22.3 78 22.7C65 23 52 23 39 22.3C26 21.7 13 20.3 6.5 19.7L0 19Z" fill="#0076ca"></path><path d="M0 51L6.5 51C13 51 26 51 39 50.7C52 50.3 65 49.7 78 50C91 50.3 104 51.7 117.2 52C130.3 52.3 143.7 51.7 156.8 50.7C170 49.7 183 48.3 196 49.3C209 50.3 222 53.7 235 54.3C248 55 261 53 274 51.7C287 50.3 300 49.7 313 49.7C326 49.7 339 50.3 352 51.3C365 52.3 378 53.7 391 53C404 52.3 417 49.7 430.2 48.3C443.3 47 456.7 47 469.8 47.3C483 47.7 496 48.3 509 48.7C522 49 535 49 548 49.3C561 49.7 574 50.3 587 51.3C600 52.3 613 53.7 626 53.3C639 53 652 51 665 50.3C678 49.7 691 50.3 704 50.7C717 51 730 51 743.2 51C756.3 51 769.7 51 782.8 51C796 51 809 51 822 51.3C835 51.7 848 52.3 861 52C874 51.7 887 50.3 893.5 49.7L900 49L900 29L893.5 29C887 29 874 29 861 29C848 29 835 29 822 29C809 29 796 29 782.8 29C769.7 29 756.3 29 743.2 28.7C730 28.3 717 27.7 704 28C691 28.3 678 29.7 665 30.7C652 31.7 639 32.3 626 32.7C613 33 600 33 587 32.3C574 31.7 561 30.3 548 30C535 29.7 522 30.3 509 29.7C496 29 483 27 469.8 26.7C456.7 26.3 443.3 27.7 430.2 29C417 30.3 404 31.7 391 32.3C378 33 365 33 352 32.3C339 31.7 326 30.3 313 30.3C300 30.3 287 31.7 274 32.7C261 33.7 248 34.3 235 33.7C222 33 209 31 196 29.7C183 28.3 170 27.7 156.8 28C143.7 28.3 130.3 29.7 117.2 30.7C104 31.7 91 32.3 78 32.3C65 32.3 52 31.7 39 31C26 30.3 13 29.7 6.5 29.3L0 29Z" fill="#0087ce"></path><path d="M0 87L6.5 86.3C13 85.7 26 84.3 39 83.7C52 83 65 83 78 84.7C91 86.3 104 89.7 117.2 91C130.3 92.3 143.7 91.7 156.8 89.3C170 87 183 83 196 83C209 83 222 87 235 88.7C248 90.3 261 89.7 274 90C287 90.3 300 91.7 313 90.7C326 89.7 339 86.3 352 86.7C365 87 378 91 391 91.7C404 92.3 417 89.7 430.2 88.7C443.3 87.7 456.7 88.3 469.8 88.7C483 89 496 89 509 88.7C522 88.3 535 87.7 548 86.3C561 85 574 83 587 84.3C600 85.7 613 90.3 626 90C639 89.7 652 84.3 665 83.7C678 83 691 87 704 89.7C717 92.3 730 93.7 743.2 92.7C756.3 91.7 769.7 88.3 782.8 85.7C796 83 809 81 822 81C835 81 848 83 861 82.7C874 82.3 887 79.7 893.5 78.3L900 77L900 47L893.5 47.7C887 48.3 874 49.7 861 50C848 50.3 835 49.7 822 49.3C809 49 796 49 782.8 49C769.7 49 756.3 49 743.2 49C730 49 717 49 704 48.7C691 48.3 678 47.7 665 48.3C652 49 639 51 626 51.3C613 51.7 600 50.3 587 49.3C574 48.3 561 47.7 548 47.3C535 47 522 47 509 46.7C496 46.3 483 45.7 469.8 45.3C456.7 45 443.3 45 430.2 46.3C417 47.7 404 50.3 391 51C378 51.7 365 50.3 352 49.3C339 48.3 326 47.7 313 47.7C300 47.7 287 48.3 274 49.7C261 51 248 53 235 52.3C222 51.7 209 48.3 196 47.3C183 46.3 170 47.7 156.8 48.7C143.7 49.7 130.3 50.3 117.2 50C104 49.7 91 48.3 78 48C65 47.7 52 48.3 39 48.7C26 49 13 49 6.5 49L0 49Z" fill="#0097d0"></path><path d="M0 101L6.5 100.3C13 99.7 26 98.3 39 97.7C52 97 65 97 78 98.7C91 100.3 104 103.7 117.2 104.3C130.3 105 143.7 103 156.8 100.3C170 97.7 183 94.3 196 94.3C209 94.3 222 97.7 235 99.7C248 101.7 261 102.3 274 103C287 103.7 300 104.3 313 103.3C326 102.3 339 99.7 352 99.7C365 99.7 378 102.3 391 102.7C404 103 417 101 430.2 100C443.3 99 456.7 99 469.8 99.7C483 100.3 496 101.7 509 102C522 102.3 535 101.7 548 100C561 98.3 574 95.7 587 96.3C600 97 613 101 626 100.7C639 100.3 652 95.7 665 96C678 96.3 691 101.7 704 104.3C717 107 730 107 743.2 105C756.3 103 769.7 99 782.8 96.7C796 94.3 809 93.7 822 94.7C835 95.7 848 98.3 861 97.3C874 96.3 887 91.7 893.5 89.3L900 87L900 75L893.5 76.3C887 77.7 874 80.3 861 80.7C848 81 835 79 822 79C809 79 796 81 782.8 83.7C769.7 86.3 756.3 89.7 743.2 90.7C730 91.7 717 90.3 704 87.7C691 85 678 81 665 81.7C652 82.3 639 87.7 626 88C613 88.3 600 83.7 587 82.3C574 81 561 83 548 84.3C535 85.7 522 86.3 509 86.7C496 87 483 87 469.8 86.7C456.7 86.3 443.3 85.7 430.2 86.7C417 87.7 404 90.3 391 89.7C378 89 365 85 352 84.7C339 84.3 326 87.7 313 88.7C300 89.7 287 88.3 274 88C261 87.7 248 88.3 235 86.7C222 85 209 81 196 81C183 81 170 85 156.8 87.3C143.7 89.7 130.3 90.3 117.2 89C104 87.7 91 84.3 78 82.7C65 81 52 81 39 81.7C26 82.3 13 83.7 6.5 84.3L0 85Z" fill="#00a6cf"></path><path d="M0 107L6.5 106.7C13 106.3 26 105.7 39 105C52 104.3 65 103.7 78 105C91 106.3 104 109.7 117.2 110.7C130.3 111.7 143.7 110.3 156.8 108C170 105.7 183 102.3 196 102.3C209 102.3 222 105.7 235 107.3C248 109 261 109 274 109.3C287 109.7 300 110.3 313 109.7C326 109 339 107 352 107.3C365 107.7 378 110.3 391 110.7C404 111 417 109 430.2 107.7C443.3 106.3 456.7 105.7 469.8 106.3C483 107 496 109 509 109.7C522 110.3 535 109.7 548 107.7C561 105.7 574 102.3 587 103C600 103.7 613 108.3 626 108.3C639 108.3 652 103.7 665 103.7C678 103.7 691 108.3 704 111C717 113.7 730 114.3 743.2 112.7C756.3 111 769.7 107 782.8 104.7C796 102.3 809 101.7 822 102.3C835 103 848 105 861 103.7C874 102.3 887 97.7 893.5 95.3L900 93L900 85L893.5 87.3C887 89.7 874 94.3 861 95.3C848 96.3 835 93.7 822 92.7C809 91.7 796 92.3 782.8 94.7C769.7 97 756.3 101 743.2 103C730 105 717 105 704 102.3C691 99.7 678 94.3 665 94C652 93.7 639 98.3 626 98.7C613 99 600 95 587 94.3C574 93.7 561 96.3 548 98C535 99.7 522 100.3 509 100C496 99.7 483 98.3 469.8 97.7C456.7 97 443.3 97 430.2 98C417 99 404 101 391 100.7C378 100.3 365 97.7 352 97.7C339 97.7 326 100.3 313 101.3C300 102.3 287 101.7 274 101C261 100.3 248 99.7 235 97.7C222 95.7 209 92.3 196 92.3C183 92.3 170 95.7 156.8 98.3C143.7 101 130.3 103 117.2 102.3C104 101.7 91 98.3 78 96.7C65 95 52 95 39 95.7C26 96.3 13 97.7 6.5 98.3L0 99Z" fill="#02b4cf"></path><path d="M0 117L6.5 116.7C13 116.3 26 115.7 39 115C52 114.3 65 113.7 78 115C91 116.3 104 119.7 117.2 120.7C130.3 121.7 143.7 120.3 156.8 118.3C170 116.3 183 113.7 196 113.7C209 113.7 222 116.3 235 118C248 119.7 261 120.3 274 121C287 121.7 300 122.3 313 121.7C326 121 339 119 352 119.3C365 119.7 378 122.3 391 122.7C404 123 417 121 430.2 120C443.3 119 456.7 119 469.8 119.7C483 120.3 496 121.7 509 121.7C522 121.7 535 120.3 548 118C561 115.7 574 112.3 587 113C600 113.7 613 118.3 626 118.7C639 119 652 115 665 115.3C678 115.7 691 120.3 704 123C717 125.7 730 126.3 743.2 124.7C756.3 123 769.7 119 782.8 116.7C796 114.3 809 113.7 822 114C835 114.3 848 115.7 861 114.3C874 113 887 109 893.5 107L900 105L900 91L893.5 93.3C887 95.7 874 100.3 861 101.7C848 103 835 101 822 100.3C809 99.7 796 100.3 782.8 102.7C769.7 105 756.3 109 743.2 110.7C730 112.3 717 111.7 704 109C691 106.3 678 101.7 665 101.7C652 101.7 639 106.3 626 106.3C613 106.3 600 101.7 587 101C574 100.3 561 103.7 548 105.7C535 107.7 522 108.3 509 107.7C496 107 483 105 469.8 104.3C456.7 103.7 443.3 104.3 430.2 105.7C417 107 404 109 391 108.7C378 108.3 365 105.7 352 105.3C339 105 326 107 313 107.7C300 108.3 287 107.7 274 107.3C261 107 248 107 235 105.3C222 103.7 209 100.3 196 100.3C183 100.3 170 103.7 156.8 106C143.7 108.3 130.3 109.7 117.2 108.7C104 107.7 91 104.3 78 103C65 101.7 52 102.3 39 103C26 103.7 13 104.3 6.5 104.7L0 105Z" fill="#26c2cc"></path><path d="M0 125L6.5 124.7C13 124.3 26 123.7 39 123C52 122.3 65 121.7 78 123.3C91 125 104 129 117.2 130C130.3 131 143.7 129 156.8 127C170 125 183 123 196 123C209 123 222 125 235 126.3C248 127.7 261 128.3 274 129C287 129.7 300 130.3 313 129.7C326 129 339 127 352 127.7C365 128.3 378 131.7 391 132.3C404 133 417 131 430.2 130C443.3 129 456.7 129 469.8 129.7C483 130.3 496 131.7 509 131.3C522 131 535 129 548 126.7C561 124.3 574 121.7 587 122.7C600 123.7 613 128.3 626 128.3C639 128.3 652 123.7 665 124C678 124.3 691 129.7 704 132.3C717 135 730 135 743.2 133C756.3 131 769.7 127 782.8 125C796 123 809 123 822 123.3C835 123.7 848 124.3 861 123C874 121.7 887 118.3 893.5 116.7L900 115L900 103L893.5 105C887 107 874 111 861 112.3C848 113.7 835 112.3 822 112C809 111.7 796 112.3 782.8 114.7C769.7 117 756.3 121 743.2 122.7C730 124.3 717 123.7 704 121C691 118.3 678 113.7 665 113.3C652 113 639 117 626 116.7C613 116.3 600 111.7 587 111C574 110.3 561 113.7 548 116C535 118.3 522 119.7 509 119.7C496 119.7 483 118.3 469.8 117.7C456.7 117 443.3 117 430.2 118C417 119 404 121 391 120.7C378 120.3 365 117.7 352 117.3C339 117 326 119 313 119.7C300 120.3 287 119.7 274 119C261 118.3 248 117.7 235 116C222 114.3 209 111.7 196 111.7C183 111.7 170 114.3 156.8 116.3C143.7 118.3 130.3 119.7 117.2 118.7C104 117.7 91 114.3 78 113C65 111.7 52 112.3 39 113C26 113.7 13 114.3 6.5 114.7L0 115Z" fill="#49cec7"></path><path d="M0 133L6.5 133C13 133 26 133 39 132.7C52 132.3 65 131.7 78 133.7C91 135.7 104 140.3 117.2 141.3C130.3 142.3 143.7 139.7 156.8 137.3C170 135 183 133 196 133C209 133 222 135 235 136.3C248 137.7 261 138.3 274 138.7C287 139 300 139 313 138.7C326 138.3 339 137.7 352 138.3C365 139 378 141 391 141.3C404 141.7 417 140.3 430.2 139.3C443.3 138.3 456.7 137.7 469.8 138.7C483 139.7 496 142.3 509 142.3C522 142.3 535 139.7 548 137C561 134.3 574 131.7 587 133C600 134.3 613 139.7 626 139.7C639 139.7 652 134.3 665 134C678 133.7 691 138.3 704 141.3C717 144.3 730 145.7 743.2 144.3C756.3 143 769.7 139 782.8 136.3C796 133.7 809 132.3 822 132C835 131.7 848 132.3 861 131.7C874 131 887 129 893.5 128L900 127L900 113L893.5 114.7C887 116.3 874 119.7 861 121C848 122.3 835 121.7 822 121.3C809 121 796 121 782.8 123C769.7 125 756.3 129 743.2 131C730 133 717 133 704 130.3C691 127.7 678 122.3 665 122C652 121.7 639 126.3 626 126.3C613 126.3 600 121.7 587 120.7C574 119.7 561 122.3 548 124.7C535 127 522 129 509 129.3C496 129.7 483 128.3 469.8 127.7C456.7 127 443.3 127 430.2 128C417 129 404 131 391 130.3C378 129.7 365 126.3 352 125.7C339 125 326 127 313 127.7C300 128.3 287 127.7 274 127C261 126.3 248 125.7 235 124.3C222 123 209 121 196 121C183 121 170 123 156.8 125C143.7 127 130.3 129 117.2 128C104 127 91 123 78 121.3C65 119.7 52 120.3 39 121C26 121.7 13 122.3 6.5 122.7L0 123Z" fill="#6adac1"></path><path d="M0 173L6.5 173.3C13 173.7 26 174.3 39 175.3C52 176.3 65 177.7 78 178.7C91 179.7 104 180.3 117.2 180.7C130.3 181 143.7 181 156.8 180.7C170 180.3 183 179.7 196 179.7C209 179.7 222 180.3 235 180.7C248 181 261 181 274 180C287 179 300 177 313 176.3C326 175.7 339 176.3 352 176.7C365 177 378 177 391 176.7C404 176.3 417 175.7 430.2 175.7C443.3 175.7 456.7 176.3 469.8 177C483 177.7 496 178.3 509 178C522 177.7 535 176.3 548 176C561 175.7 574 176.3 587 177.3C600 178.3 613 179.7 626 179C639 178.3 652 175.7 665 175.7C678 175.7 691 178.3 704 179.7C717 181 730 181 743.2 180.3C756.3 179.7 769.7 178.3 782.8 177.3C796 176.3 809 175.7 822 175C835 174.3 848 173.7 861 173.3C874 173 887 173 893.5 173L900 173L900 125L893.5 126C887 127 874 129 861 129.7C848 130.3 835 129.7 822 130C809 130.3 796 131.7 782.8 134.3C769.7 137 756.3 141 743.2 142.3C730 143.7 717 142.3 704 139.3C691 136.3 678 131.7 665 132C652 132.3 639 137.7 626 137.7C613 137.7 600 132.3 587 131C574 129.7 561 132.3 548 135C535 137.7 522 140.3 509 140.3C496 140.3 483 137.7 469.8 136.7C456.7 135.7 443.3 136.3 430.2 137.3C417 138.3 404 139.7 391 139.3C378 139 365 137 352 136.3C339 135.7 326 136.3 313 136.7C300 137 287 137 274 136.7C261 136.3 248 135.7 235 134.3C222 133 209 131 196 131C183 131 170 133 156.8 135.3C143.7 137.7 130.3 140.3 117.2 139.3C104 138.3 91 133.7 78 131.7C65 129.7 52 130.3 39 130.7C26 131 13 131 6.5 131L0 131Z" fill="#8be5ba"></path><path d="M0 201L6.5 201C13 201 26 201 39 201C52 201 65 201 78 201C91 201 104 201 117.2 201C130.3 201 143.7 201 156.8 201C170 201 183 201 196 201C209 201 222 201 235 201C248 201 261 201 274 201C287 201 300 201 313 201C326 201 339 201 352 201C365 201 378 201 391 201C404 201 417 201 430.2 201C443.3 201 456.7 201 469.8 201C483 201 496 201 509 201C522 201 535 201 548 201C561 201 574 201 587 201C600 201 613 201 626 201C639 201 652 201 665 201C678 201 691 201 704 201C717 201 730 201 743.2 201C756.3 201 769.7 201 782.8 201C796 201 809 201 822 201C835 201 848 201 861 201C874 201 887 201 893.5 201L900 201L900 171L893.5 171C887 171 874 171 861 171.3C848 171.7 835 172.3 822 173C809 173.7 796 174.3 782.8 175.3C769.7 176.3 756.3 177.7 743.2 178.3C730 179 717 179 704 177.7C691 176.3 678 173.7 665 173.7C652 173.7 639 176.3 626 177C613 177.7 600 176.3 587 175.3C574 174.3 561 173.7 548 174C535 174.3 522 175.7 509 176C496 176.3 483 175.7 469.8 175C456.7 174.3 443.3 173.7 430.2 173.7C417 173.7 404 174.3 391 174.7C378 175 365 175 352 174.7C339 174.3 326 173.7 313 174.3C300 175 287 177 274 178C261 179 248 179 235 178.7C222 178.3 209 177.7 196 177.7C183 177.7 170 178.3 156.8 178.7C143.7 179 130.3 179 117.2 178.7C104 178.3 91 177.7 78 176.7C65 175.7 52 174.3 39 173.3C26 172.3 13 171.7 6.5 171.3L0 171Z" fill="#acefb4"></path></svg>