<svg id="visual" viewBox="0 0 1920 1080" width="1920" height="1080" xmlns="http://www.w3.org/2000/svg" xmlns:xlink="http://www.w3.org/1999/xlink" version="1.1"><rect x="0" y="0" width="1920" height="1080" fill="#152d40"></rect><g fill="none" stroke="#c7eff6" stroke-width="2"><circle r="24" cx="1572" cy="690"></circle><circle r="0" cx="1520" cy="424"></circle><circle r="16" cx="517" cy="451"></circle><circle r="13" cx="1026" cy="391"></circle><circle r="-1" cx="1524" cy="105"></circle><circle r="1" cx="498" cy="990"></circle><circle r="18" cx="166" cy="1001"></circle><circle r="22" cx="761" cy="119"></circle><circle r="2" cx="1243" cy="807"></circle><circle r="5" cx="1098" cy="526"></circle><circle r="17" cx="1489" cy="939"></circle><circle r="16" cx="1343" cy="201"></circle><circle r="7" cx="986" cy="849"></circle><circle r="5" cx="1582" cy="818"></circle><circle r="14" cx="700" cy="544"></circle><circle r="8" cx="85" cy="109"></circle><circle r="19" cx="1662" cy="443"></circle><circle r="19" cx="603" cy="894"></circle><circle r="1" cx="31" cy="166"></circle><circle r="3" cx="162" cy="611"></circle><circle r="1" cx="589" cy="419"></circle><circle r="21" cx="848" cy="614"></circle><circle r="2" cx="1132" cy="253"></circle><circle r="2" cx="243" cy="885"></circle><circle r="22" cx="859" cy="1037"></circle><circle r="20" cx="1196" cy="375"></circle><circle r="3" cx="1008" cy="675"></circle><circle r="1" cx="978" cy="316"></circle><circle r="0" cx="269" cy="456"></circle><circle r="16" cx="1807" cy="767"></circle><circle r="3" cx="635" cy="87"></circle><circle r="10" cx="117" cy="58"></circle><circle r="5" cx="1776" cy="38"></circle><circle r="22" cx="865" cy="364"></circle><circle r="9" cx="1035" cy="305"></circle><circle r="22" cx="867" cy="259"></circle><circle r="0" cx="432" cy="101"></circle><circle r="11" cx="934" cy="449"></circle><circle r="6" cx="641" cy="628"></circle><circle r="5" cx="1126" cy="1003"></circle><circle r="17" cx="102" cy="1045"></circle><circle r="9" cx="1355" cy="114"></circle><circle r="-1" cx="869" cy="519"></circle><circle r="15" cx="1192" cy="861"></circle><circle r="3" cx="1250" cy="37"></circle><circle r="13" cx="81" cy="585"></circle><circle r="22" cx="1149" cy="672"></circle><circle r="7" cx="919" cy="222"></circle><circle r="11" cx="941" cy="985"></circle><circle r="-1" cx="1613" cy="113"></circle><circle r="3" cx="609" cy="727"></circle><circle r="1" cx="1459" cy="510"></circle><circle r="8" cx="1202" cy="108"></circle><circle r="7" cx="366" cy="396"></circle><circle r="14" cx="1353" cy="620"></circle><circle r="-1" cx="1581" cy="929"></circle><circle r="13" cx="409" cy="777"></circle><circle r="17" cx="978" cy="126"></circle><circle r="18" cx="295" cy="628"></circle><circle r="8" cx="356" cy="487"></circle><circle r="14" cx="1331" cy="1045"></circle><circle r="-1" cx="136" cy="341"></circle><circle r="18" cx="966" cy="38"></circle><circle r="2" cx="180" cy="238"></circle><circle r="15" cx="50" cy="985"></circle><circle r="3" cx="957" cy="604"></circle><circle r="6" cx="1770" cy="1012"></circle><circle r="11" cx="1616" cy="516"></circle><circle r="20" cx="820" cy="207"></circle><circle r="21" cx="1177" cy="304"></circle><circle r="9" cx="977" cy="721"></circle><circle r="12" cx="1205" cy="545"></circle><circle r="22" cx="1720" cy="199"></circle><circle r="8" cx="433" cy="925"></circle><circle r="2" cx="1580" cy="287"></circle><circle r="6" cx="1674" cy="52"></circle><circle r="8" cx="1012" cy="783"></circle><circle r="3" cx="564" cy="42"></circle><circle r="18" cx="1175" cy="943"></circle><circle r="19" cx="1718" cy="824"></circle><circle r="21" cx="431" cy="425"></circle><circle r="8" cx="132" cy="901"></circle><circle r="20" cx="112" cy="662"></circle><circle r="14" cx="1262" cy="547"></circle><circle r="18" cx="1129" cy="887"></circle><circle r="21" cx="1653" cy="193"></circle><circle r="19" cx="1383" cy="734"></circle><circle r="17" cx="35" cy="301"></circle><circle r="9" cx="1361" cy="523"></circle><circle r="19" cx="1562" cy="744"></circle><circle r="15" cx="541" cy="837"></circle><circle r="7" cx="1580" cy="202"></circle><circle r="17" cx="531" cy="216"></circle><circle r="8" cx="326" cy="543"></circle><circle r="22" cx="711" cy="672"></circle><circle r="-1" cx="453" cy="36"></circle><circle r="6" cx="731" cy="885"></circle><circle r="11" cx="937" cy="512"></circle><circle r="14" cx="1307" cy="61"></circle><circle r="-1" cx="1555" cy="880"></circle><circle r="20" cx="650" cy="386"></circle><circle r="7" cx="1837" cy="428"></circle><circle r="16" cx="1834" cy="355"></circle><circle r="16" cx="233" cy="533"></circle><circle r="10" cx="1875" cy="38"></circle><circle r="16" cx="653" cy="1021"></circle><circle r="-1" cx="1636" cy="827"></circle><circle r="17" cx="1737" cy="278"></circle><circle r="5" cx="387" cy="52"></circle><circle r="19" cx="87" cy="527"></circle><circle r="21" cx="1572" cy="419"></circle><circle r="17" cx="64" cy="686"></circle><circle r="0" cx="435" cy="297"></circle><circle r="12" cx="1062" cy="628"></circle><circle r="-1" cx="1130" cy="615"></circle><circle r="13" cx="1258" cy="246"></circle><circle r="13" cx="1149" cy="757"></circle><circle r="1" cx="1467" cy="995"></circle><circle r="16" cx="1457" cy="838"></circle><circle r="10" cx="540" cy="543"></circle><circle r="17" cx="449" cy="1025"></circle><circle r="22" cx="1377" cy="275"></circle><circle r="3" cx="1119" cy="72"></circle><circle r="15" cx="1494" cy="39"></circle><circle r="8" cx="1861" cy="604"></circle><circle r="8" cx="1683" cy="340"></circle><circle r="5" cx="286" cy="776"></circle><circle r="22" cx="691" cy="436"></circle><circle r="9" cx="1851" cy="684"></circle><circle r="7" cx="1282" cy="970"></circle><circle r="15" cx="1719" cy="120"></circle><circle r="5" cx="27" cy="780"></circle><circle r="12" cx="630" cy="146"></circle><circle r="7" cx="1801" cy="959"></circle><circle r="20" cx="1316" cy="155"></circle><circle r="0" cx="434" cy="610"></circle><circle r="4" cx="88" cy="935"></circle><circle r="14" cx="1891" cy="443"></circle><circle r="12" cx="764" cy="676"></circle><circle r="3" cx="1139" cy="189"></circle><circle r="15" cx="1122" cy="138"></circle><circle r="20" cx="1809" cy="834"></circle><circle r="0" cx="248" cy="832"></circle><circle r="3" cx="537" cy="628"></circle><circle r="1" cx="1443" cy="911"></circle><circle r="7" cx="267" cy="382"></circle><circle r="9" cx="395" cy="192"></circle><circle r="7" cx="1396" cy="464"></circle><circle r="5" cx="425" cy="556"></circle><circle r="21" cx="183" cy="127"></circle><circle r="12" cx="1035" cy="949"></circle><circle r="2" cx="1358" cy="840"></circle><circle r="11" cx="1558" cy="1026"></circle><circle r="2" cx="1551" cy="588"></circle><circle r="0" cx="1426" cy="570"></circle><circle r="1" cx="1024" cy="1014"></circle><circle r="3" cx="883" cy="683"></circle><circle r="21" cx="1408" cy="228"></circle><circle r="13" cx="1688" cy="942"></circle><circle r="13" cx="1893" cy="379"></circle><circle r="10" cx="338" cy="113"></circle><circle r="22" cx="1475" cy="146"></circle><circle r="1" cx="337" cy="212"></circle><circle r="0" cx="596" cy="232"></circle><circle r="10" cx="850" cy="149"></circle><circle r="0" cx="1101" cy="820"></circle><circle r="-1" cx="1726" cy="444"></circle><circle r="18" cx="427" cy="706"></circle><circle r="1" cx="844" cy="429"></circle><circle r="2" cx="1854" cy="745"></circle><circle r="21" cx="1213" cy="467"></circle><circle r="6" cx="1012" cy="615"></circle><circle r="0" cx="635" cy="518"></circle><circle r="-1" cx="1685" cy="530"></circle><circle r="5" cx="1813" cy="512"></circle><circle r="17" cx="755" cy="67"></circle><circle r="12" cx="97" cy="823"></circle><circle r="11" cx="592" cy="957"></circle><circle r="9" cx="91" cy="225"></circle><circle r="3" cx="1497" cy="625"></circle><circle r="13" cx="887" cy="922"></circle><circle r="15" cx="156" cy="699"></circle><circle r="15" cx="1340" cy="324"></circle><circle r="-1" cx="737" cy="337"></circle><circle r="16" cx="688" cy="720"></circle><circle r="22" cx="277" cy="569"></circle><circle r="20" cx="762" cy="448"></circle><circle r="20" cx="1687" cy="750"></circle><circle r="16" cx="1021" cy="546"></circle><circle r="4" cx="596" cy="1021"></circle><circle r="-1" cx="361" cy="294"></circle><circle r="16" cx="1516" cy="365"></circle><circle r="8" cx="102" cy="471"></circle><circle r="3" cx="277" cy="319"></circle><circle r="16" cx="988" cy="266"></circle><circle r="10" cx="622" cy="288"></circle><circle r="16" cx="683" cy="778"></circle><circle r="13" cx="197" cy="1048"></circle><circle r="0" cx="190" cy="560"></circle><circle r="17" cx="177" cy="57"></circle><circle r="18" cx="1792" cy="606"></circle><circle r="22" cx="1492" cy="887"></circle><circle r="5" cx="527" cy="90"></circle><circle r="6" cx="1019" cy="210"></circle><circle r="22" cx="484" cy="237"></circle><circle r="8" cx="1081" cy="351"></circle><circle r="1" cx="1279" cy="677"></circle><circle r="13" cx="940" cy="876"></circle><circle r="12" cx="805" cy="937"></circle><circle r="1" cx="936" cy="678"></circle><circle r="1" cx="727" cy="224"></circle><circle r="20" cx="506" cy="585"></circle><circle r="0" cx="1428" cy="301"></circle><circle r="6" cx="524" cy="944"></circle><circle r="11" cx="1845" cy="254"></circle><circle r="17" cx="239" cy="80"></circle><circle r="1" cx="484" cy="712"></circle></g></svg>